<svg xmlns="http://www.w3.org/2000/svg" xmlns:xlink="http://www.w3.org/1999/xlink" contentStyleType="text/css" height="176px" preserveAspectRatio="none" style="width:275px;height:176px;background:#FFFFFF;" version="1.1" viewBox="0 0 275 176" width="275px" zoomAndPan="magnify"><defs/><g><!--MD5=[3fd616f346a44cd59a91eb10b19e157c]
class User--><g id="elem_User"><rect codeLine="3" fill="#F1F1F1" height="113.1875" id="User" rx="2.5" ry="2.5" style="stroke:#181818;stroke-width:0.5;" width="94" x="7" y="31.5"/><ellipse cx="35.95" cy="47.5" fill="#ADD1B2" rx="11" ry="11" style="stroke:#181818;stroke-width:1.0;"/><path d="M34.7469,48.375 L36.2,48.375 L36.2,48.4844 C36.2,48.8906 36.2313,49.0469 36.3094,49.2031 C36.4656,49.4531 36.7469,49.6094 37.0438,49.6094 C37.2938,49.6094 37.5594,49.4688 37.7156,49.25 C37.8406,49.0938 37.8719,48.9375 37.8719,48.4844 L37.8719,46.5625 C37.8719,46.4063 37.8719,46.3594 37.8563,46.2031 C37.7938,45.7344 37.4813,45.4219 37.0281,45.4219 C36.7781,45.4219 36.5125,45.5625 36.3406,45.7813 C36.2313,45.9531 36.2,46.1094 36.2,46.5625 L36.2,46.6875 L34.7469,46.6875 L34.7469,44.2813 L38.7313,44.2813 L38.7313,45.1406 C38.7313,45.5469 38.7625,45.7188 38.8406,45.875 C39.0125,46.125 39.2938,46.2813 39.575,46.2813 C39.8406,46.2813 40.1063,46.1406 40.2781,45.9219 C40.3875,45.75 40.4188,45.6094 40.4188,45.1406 L40.4188,42.5938 L32.7938,42.5938 C32.3563,42.5938 32.2313,42.6094 32.075,42.7031 C31.825,42.8594 31.6688,43.1563 31.6688,43.4375 C31.6688,43.7188 31.8094,43.9688 32.0281,44.1406 C32.1844,44.25 32.3719,44.2813 32.7938,44.2813 L33.0438,44.2813 L33.0438,50.7969 L32.7938,50.7969 C32.3875,50.7969 32.2313,50.8125 32.075,50.9219 C31.825,51.0938 31.6688,51.3594 31.6688,51.6563 C31.6688,51.9219 31.8094,52.1719 32.0281,52.3281 C32.1688,52.4531 32.4031,52.5 32.7938,52.5 L40.7938,52.5 L40.7938,49.9219 C40.7938,49.4844 40.7625,49.3438 40.6844,49.1875 C40.5125,48.9375 40.2313,48.7813 39.95,48.7813 C39.6844,48.7813 39.4188,48.8906 39.2469,49.1406 C39.1375,49.2969 39.1063,49.4375 39.1063,49.9219 L39.1063,50.7969 L34.7469,50.7969 L34.7469,48.375 Z " fill="#000000"/><text fill="#000000" font-family="sans-serif" font-size="14" lengthAdjust="spacing" textLength="31" x="53.05" y="52.3467">User</text><line style="stroke:#181818;stroke-width:0.5;" x1="8" x2="100" y1="63.5" y2="63.5"/><text fill="#000000" font-family="sans-serif" font-size="14" lengthAdjust="spacing" textLength="13" x="13" y="80.4951">id</text><line style="stroke:#181818;stroke-width:1.0;" x1="8" x2="100" y1="87.7969" y2="87.7969"/><text fill="#000000" font-family="sans-serif" font-size="14" lengthAdjust="spacing" textLength="39" x="13" y="104.792">email</text><text fill="#000000" font-family="sans-serif" font-size="14" lengthAdjust="spacing" textLength="78" x="13" y="121.0889">created_at</text><text fill="#000000" font-family="sans-serif" font-size="14" lengthAdjust="spacing" textLength="82" x="13" y="137.3857">updated_at</text></g><!--MD5=[60a85bc96d8e523948e0cc9e29205765]
class EmailMask--><g id="elem_EmailMask"><rect codeLine="11" fill="#F1F1F1" height="162.0781" id="EmailMask" rx="2.5" ry="2.5" style="stroke:#181818;stroke-width:0.5;" width="107" x="161" y="7"/><ellipse cx="176" cy="23" fill="#ADD1B2" rx="11" ry="11" style="stroke:#181818;stroke-width:1.0;"/><path d="M174.7969,23.875 L176.25,23.875 L176.25,23.9844 C176.25,24.3906 176.2813,24.5469 176.3594,24.7031 C176.5156,24.9531 176.7969,25.1094 177.0938,25.1094 C177.3438,25.1094 177.6094,24.9688 177.7656,24.75 C177.8906,24.5938 177.9219,24.4375 177.9219,23.9844 L177.9219,22.0625 C177.9219,21.9063 177.9219,21.8594 177.9063,21.7031 C177.8438,21.2344 177.5313,20.9219 177.0781,20.9219 C176.8281,20.9219 176.5625,21.0625 176.3906,21.2813 C176.2813,21.4531 176.25,21.6094 176.25,22.0625 L176.25,22.1875 L174.7969,22.1875 L174.7969,19.7813 L178.7813,19.7813 L178.7813,20.6406 C178.7813,21.0469 178.8125,21.2188 178.8906,21.375 C179.0625,21.625 179.3438,21.7813 179.625,21.7813 C179.8906,21.7813 180.1563,21.6406 180.3281,21.4219 C180.4375,21.25 180.4688,21.1094 180.4688,20.6406 L180.4688,18.0938 L172.8438,18.0938 C172.4063,18.0938 172.2813,18.1094 172.125,18.2031 C171.875,18.3594 171.7188,18.6563 171.7188,18.9375 C171.7188,19.2188 171.8594,19.4688 172.0781,19.6406 C172.2344,19.75 172.4219,19.7813 172.8438,19.7813 L173.0938,19.7813 L173.0938,26.2969 L172.8438,26.2969 C172.4375,26.2969 172.2813,26.3125 172.125,26.4219 C171.875,26.5938 171.7188,26.8594 171.7188,27.1563 C171.7188,27.4219 171.8594,27.6719 172.0781,27.8281 C172.2188,27.9531 172.4531,28 172.8438,28 L180.8438,28 L180.8438,25.4219 C180.8438,24.9844 180.8125,24.8438 180.7344,24.6875 C180.5625,24.4375 180.2813,24.2813 180,24.2813 C179.7344,24.2813 179.4688,24.3906 179.2969,24.6406 C179.1875,24.7969 179.1563,24.9375 179.1563,25.4219 L179.1563,26.2969 L174.7969,26.2969 L174.7969,23.875 Z " fill="#000000"/><text fill="#000000" font-family="sans-serif" font-size="14" lengthAdjust="spacing" textLength="75" x="190" y="27.8467">EmailMask</text><line style="stroke:#181818;stroke-width:0.5;" x1="162" x2="267" y1="39" y2="39"/><text fill="#000000" font-family="sans-serif" font-size="14" lengthAdjust="spacing" textLength="55" x="167" y="55.9951">address</text><line style="stroke:#181818;stroke-width:1.0;" x1="162" x2="267" y1="63.2969" y2="63.2969"/><text fill="#000000" font-family="sans-serif" font-size="14" lengthAdjust="spacing" textLength="40" x="167" y="80.292">name</text><text fill="#000000" font-family="sans-serif" font-size="14" lengthAdjust="spacing" textLength="82" x="167" y="96.5889">description</text><text fill="#000000" font-family="sans-serif" font-size="14" lengthAdjust="spacing" textLength="50" x="167" y="112.8857">user_id</text><text fill="#000000" font-family="sans-serif" font-size="14" lengthAdjust="spacing" textLength="58" x="167" y="129.1826">enabled</text><text fill="#000000" font-family="sans-serif" font-size="14" lengthAdjust="spacing" textLength="78" x="167" y="145.4795">created_at</text><text fill="#000000" font-family="sans-serif" font-size="14" lengthAdjust="spacing" textLength="82" x="167" y="161.7764">updated_at</text></g><!--MD5=[dcf4b5a64799d345cb54e70fd04bc891]
link User to EmailMask--><g id="link_User_EmailMask"><path codeLine="22" d="M109.296,88 C123.21,88 138.266,88 152.494,88 " fill="none" id="User-EmailMask" style="stroke:#181818;stroke-width:1.0;"/><line style="stroke:#181818;stroke-width:1.0;" x1="152.76" x2="160.76" y1="88" y2="82"/><line style="stroke:#181818;stroke-width:1.0;" x1="152.76" x2="160.76" y1="88" y2="94"/><line style="stroke:#181818;stroke-width:1.0;" x1="152.76" x2="160.76" y1="88" y2="88"/><ellipse cx="146.76" cy="88" fill="none" rx="4" ry="4" style="stroke:#181818;stroke-width:1.0;"/><line style="stroke:#181818;stroke-width:1.0;" x1="105.2708" x2="105.2708" y1="92" y2="84"/><line style="stroke:#181818;stroke-width:1.0;" x1="108.2708" x2="108.2708" y1="92" y2="84"/><line style="stroke:#181818;stroke-width:1.0;" x1="109.2708" x2="101.2708" y1="88" y2="88"/></g><!--MD5=[db2b33fd41e1bd23c44a36eddabf197f]
--></g></svg>