<svg xmlns="http://www.w3.org/2000/svg" xmlns:xlink="http://www.w3.org/1999/xlink" contentStyleType="text/css" height="282px" preserveAspectRatio="none" style="width:415px;height:282px;background:#FFFFFF;" version="1.1" viewBox="0 0 415 282" width="415px" zoomAndPan="magnify"><defs/><g><!--MD5=[0041867f107ef9036c68ea859b6e8297]
cluster EMS--><g id="cluster_EMS"><path d="M121,67 L285,67 A3.75,3.75 0 0 1 287.5,69.5 L294.5,89.2969 L297,89.2969 A2.5,2.5 0 0 1 299.5,91.7969 L299.5,272.5 A2.5,2.5 0 0 1 297,275 L121,275 A2.5,2.5 0 0 1 118.5,272.5 L118.5,69.5 A2.5,2.5 0 0 1 121,67 " style="stroke:#000000;stroke-width:1.5;fill:none;"/><line style="stroke:#000000;stroke-width:1.5;fill:none;" x1="118.5" x2="294.5" y1="89.2969" y2="89.2969"/><text fill="#000000" font-family="sans-serif" font-size="14" font-weight="bold" lengthAdjust="spacing" textLength="163" x="122.5" y="81.9951">Email Masks Service</text></g><!--MD5=[6a726c4e61ce62ba3a419f851e7e4e3b]
entity EMSDB--><g id="elem_EMSDB"><path d="M158,216 C158,206 216.5,206 216.5,206 C216.5,206 275,206 275,216 L275,241.2969 C275,251.2969 216.5,251.2969 216.5,251.2969 C216.5,251.2969 158,251.2969 158,241.2969 L158,216 " fill="#F1F1F1" style="stroke:#181818;stroke-width:0.5;"/><path d="M158,216 C158,226 216.5,226 216.5,226 C216.5,226 275,226 275,216 " fill="none" style="stroke:#181818;stroke-width:0.5;"/><text fill="#000000" font-family="sans-serif" font-size="14" lengthAdjust="spacing" textLength="97" x="168" y="242.9951">Relational DB</text></g><!--MD5=[cb3e151f375c1fb55c4b5bc8f0aaea11]
entity EMSAPI--><g id="elem_EMSAPI"><rect fill="#F1F1F1" height="36.2969" rx="2.5" ry="2.5" style="stroke:#181818;stroke-width:0.5;" width="114" x="161.5" y="110"/><text fill="#000000" font-family="sans-serif" font-size="14" lengthAdjust="spacing" textLength="94" x="171.5" y="132.9951">HTTP Service</text></g><!--MD5=[194a92f280a7d2c2f105939ff984a7cf]
entity Frontend--><g id="elem_Frontend"><rect fill="#F1F1F1" height="36.2969" rx="2.5" ry="2.5" style="stroke:#181818;stroke-width:0.5;" width="171" x="7" y="7"/><text fill="#000000" font-family="sans-serif" font-size="14" lengthAdjust="spacing" textLength="151" x="17" y="29.9951">User Facing Frontend</text></g><!--MD5=[00a92c95c44691d3b1fbb9e363f30ea2]
entity SendGrid--><g id="elem_SendGrid"><rect fill="#F1F1F1" height="36.2969" rx="2.5" ry="2.5" style="stroke:#181818;stroke-width:0.5;" width="86" x="323.5" y="210.5"/><text fill="#000000" font-family="sans-serif" font-size="14" lengthAdjust="spacing" textLength="66" x="333.5" y="233.4951">SendGrid</text></g><!--MD5=[031b45bc4b16005b8fb2ce0f270abe18]
entity Auth0--><g id="elem_Auth0"><rect fill="#F1F1F1" height="36.2969" rx="2.5" ry="2.5" style="stroke:#181818;stroke-width:0.5;" width="63" x="28" y="110"/><text fill="#000000" font-family="sans-serif" font-size="14" lengthAdjust="spacing" textLength="43" x="38" y="132.9951">Auth0</text></g><!--MD5=[fe66845bc2cb36a34f9af5e13740826d]
link Frontend to Auth0--><g id="link_Frontend_Auth0"><path d="M86.902,43.133 C81.3552,60.11 72.8332,86.192 66.7669,104.759 " fill="none" id="Frontend-to-Auth0" style="stroke:#181818;stroke-width:1.0;"/><polygon fill="#181818" points="65.1255,109.783,71.7228,102.4703,66.6783,105.0302,64.1184,99.9858,65.1255,109.783" style="stroke:#181818;stroke-width:1.0;"/></g><!--MD5=[42a845d5c0ca0ee2983f2ef62d1574d3]
link Frontend to EMS--><g id="link_Frontend_EMS"><path d="M104.4759,43.07 C105.9746,45.652 107.374,48.343 108.5,51 C111.781,58.7403 114.5286,67.1891 116.8086,75.5492 C117.3786,77.6393 117.9194,79.7238 118.432,81.7903 " fill="none" id="Frontend-to-EMS" style="stroke:#181818;stroke-width:1.0;"/><polygon fill="#181818" points="118.432,81.7903,120.1476,72.092,117.2283,76.9374,112.3829,74.0181,118.432,81.7903" style="stroke:#181818;stroke-width:1.0;"/></g><!--MD5=[915ef87c8acb35cf848e2bebf9fb662c]
link EMSAPI to EMSDB--><g id="link_EMSAPI_EMSDB"><path d="M218.152,146.157 C217.847,161.143 217.401,183.15 217.048,200.4954 " fill="none" id="EMSAPI-to-EMSDB" style="stroke:#181818;stroke-width:1.0;"/><polygon fill="#181818" points="216.942,205.716,221.124,196.7991,217.0436,200.717,213.1256,196.6366,216.942,205.716" style="stroke:#181818;stroke-width:1.0;"/></g><!--MD5=[3e254faec43514cb950ca25bad6a845d]
link EMSAPI to SendGrid--><g id="link_EMSAPI_SendGrid"><path d="M248.506,148.97 C274.045,165.967 310.559,190.269 336.185,207.3243 " fill="none" id="EMSAPI-SendGrid" style="stroke:#181818;stroke-width:1.0;"/><polygon fill="#181818" points="340.519,210.2087,335.2425,201.8925,336.3565,207.4386,330.8104,208.5526,340.519,210.2087" style="stroke:#181818;stroke-width:1.0;"/><polygon fill="#181818" points="244.28,146.157,249.5549,154.4742,248.442,148.9279,253.9883,147.8149,244.28,146.157" style="stroke:#181818;stroke-width:1.0;"/></g><!--MD5=[11bd8a028557897100fbe36d0e253dd2]
--></g></svg>